<svg width="283" height="64" viewBox="0 0 283 64" fill="none" xmlns="http://www.w3.org/2000/svg">
<path d="M121.121 52.3958V10.3163H147.097V16.9703H128.248V28.125H145.327V34.5872H128.248V45.7419H147.097V52.3958H121.121Z" fill="#F4DDB5"/>
<path d="M166.711 52.396H159.822L148.102 23.4816H155.708L163.362 44.1139L170.825 23.4816H178.05L166.711 52.396Z" fill="#F4DDB5"/>
<path d="M181.254 52.396V23.4816H187.856V27.1676C189.53 24.1997 193.119 22.6682 196.419 22.6682C200.197 22.6682 203.546 24.3915 205.077 27.7906C207.325 24.0094 210.722 22.6682 214.453 22.6682C219.667 22.6682 224.643 25.9721 224.643 33.6312V52.3974H217.994V34.7791C217.994 31.3801 216.272 28.8434 212.396 28.8434C208.76 28.8434 206.417 31.716 206.417 35.2579V52.396H199.671V34.7791C199.671 31.4753 197.997 28.8434 194.074 28.8434C190.391 28.8434 188.095 31.5718 188.095 35.2579V52.396H181.254Z" fill="#F4DDB5"/>
<path d="M257.796 37.9387C257.796 46.8423 251.434 53.3059 242.774 53.3059C234.163 53.3059 227.848 46.8437 227.848 37.9387C227.848 29.0827 234.211 22.6191 242.774 22.6191C251.434 22.6191 257.796 29.0827 257.796 37.9387ZM250.86 37.9387C250.86 31.9554 247.081 28.8433 242.775 28.8433C238.566 28.8433 234.691 31.9078 234.691 37.9387C234.691 43.9697 238.566 47.1307 242.775 47.1307C247.032 47.1293 250.86 43.9697 250.86 37.9387Z" fill="#F4DDB5"/>
<path d="M265.498 42.9169C265.737 45.5502 267.699 47.8475 271.382 47.8475C274.253 47.8475 275.688 46.316 275.688 44.5436C275.688 43.0121 274.636 41.8152 272.291 41.3364L268.034 40.3788C262.915 39.2295 260.284 35.927 260.284 31.954C260.284 26.9268 264.924 22.6191 270.904 22.6191C278.988 22.6191 281.572 27.8367 282.05 30.7094L276.262 32.3851C276.022 30.7094 274.779 28.0761 270.904 28.0761C268.464 28.0761 266.742 29.6077 266.742 31.38C266.742 32.9115 267.89 34.0609 269.66 34.3955L274.061 35.3054C279.514 36.5024 282.385 39.8048 282.385 44.0663C282.385 48.4705 278.845 53.3059 271.477 53.3059C263.106 53.3059 259.901 47.8489 259.565 44.5926L265.498 42.9169Z" fill="#F4DDB5"/>
<path d="M39.8722 2.12107C22.1571 8.92619 20.5343 26.3541 15.4547 34.4933C10.3149 42.7292 -1.46025 47.2734 0.149958 51.4704C1.76017 55.6675 13.5493 51.1597 22.8762 53.8377C32.0926 56.4836 44.9519 68.3495 62.667 61.5444C71.6918 58.0782 78.2263 50.9427 81.2313 42.4912C81.5545 41.5841 80.9501 40.6139 79.9918 40.5243C79.3959 40.4683 78.8237 40.7805 78.5551 41.3153C75.8369 46.733 71.1741 51.1947 65.0718 53.5382C54.9979 57.4076 43.9754 54.3697 37.2058 46.7498C35.6683 45.0195 34.3533 43.0498 33.3153 40.8729C33.0299 40.2737 32.7585 39.6647 32.5179 39.0348C32.2758 38.4048 32.0702 37.7706 31.8813 37.1336C37.2058 34.6501 43.3501 32.0196 50.3155 29.3444C57.1453 26.7209 63.3609 24.5929 68.8952 22.8906C72.6389 21.7399 76.0705 20.7823 79.1692 19.9997C79.3931 19.9437 79.6141 19.8877 79.8337 19.8331C80.3024 19.7169 80.7837 19.9675 80.9571 20.4183L80.9599 20.4267C81.062 20.6941 81.1502 20.9629 81.2453 21.2317C81.8581 22.9662 82.3169 24.7189 82.6205 26.4759C82.7534 27.2444 83.5928 27.663 84.2811 27.2934C86.8244 25.9271 89.1509 24.5944 91.2297 23.312C98.9758 18.5382 103.271 14.4896 102.389 12.1951C101.509 9.89915 95.6113 9.76756 86.6621 11.4055C83.818 11.9263 80.6647 12.6262 77.2666 13.4928C76.6791 13.6426 76.0845 13.798 75.483 13.9576C72.6235 14.7164 69.6073 15.5857 66.4666 16.5587C60.6259 18.3688 54.36 20.5373 47.8911 23.0222C41.8392 25.3475 36.1034 27.7582 30.8433 30.1605C30.779 19.9647 36.9386 10.3261 47.0126 6.45669C53.1135 4.11319 59.5627 4.30498 65.2061 6.51269C65.7629 6.73108 66.3967 6.57989 66.8038 6.13891C67.4557 5.43194 67.2556 4.30638 66.4093 3.8472C58.5247 -0.418423 48.897 -1.34519 39.8722 2.12107Z" fill="#F4DDB5"/>
</svg>
